:FULLY-SPECIFIED
:FORCE-ALL-JOINTS-BE-3DOF
:DEGREES
408
root 4.51124 16.2681 -11.4699 4.37322 -33.2413 -5.03669
lfemur -30.6223 4.28613 -6.45724
ltibia 43.6825 -0 0
lfoot -10.8125 12.7446 0.182921
ltoes -0.559024 0 0
rfemur -30.394 -13.6092 22.6617
rtibia 66.5284 -0 0
rfoot 1.81197 -1.2522 0.012043
rtoes 23.4461 -0 0
lowerback 4.92425 3.9041 1.65028
upperback 1.73447 5.24792 -1.1275
thorax -0.720965 2.62685 -2.34012
lowerneck -6.32502 1.88653 7.29675
upperneck 3.72216 1.8618 0.479092
head 2.39666 1.0472 -1.04078
lclavicle -2.85032e-14 1.69983e-15 3.54468e-30
lhumerus -44.2212 -19.6761 94.4031
lradius 50.6771 -0 0
lwrist 17.0901 0 0
lhand -16.8631 3.05865 0.0550567
lfingers 7.12502 -0 0
lthumb 9.36662 32.81 0.0502809
rclavicle -2.85032e-14 1.69983e-15 3.54468e-30
rhumerus -45.1268 9.43396 -91.6089
rradius 62.7571 -0 0
rwrist 9.43307 0 0
rhand -21.1641 -18.557 0.0502354
rfingers 7.12502 -0 0
rthumb 5.21469 -48.4056 0.0522824
409
root 4.42341 16.2387 -11.3291 4.19323 -33.2514 -5.01118
lfemur -30.3052 4.78611 -6.39309
ltibia 44.6437 -0 0
lfoot -11.7391 12.2561 0.1991
ltoes -0.817351 0 0
rfemur -31.6087 -12.9485 21.593
rtibia 65.6471 -0 0
rfoot 2.16092 -1.16687 0.013107
rtoes 22.3607 -0 0
lowerback 5.1108 3.81131 1.72519
upperback 1.76311 5.12918 -1.14475
thorax -0.793797 2.56693 -2.40554
lowerneck -6.34378 2.12111 7.48859
upperneck 3.77352 2.17321 0.15428
head 2.44247 1.19711 -1.16779
lclavicle -3.10874e-14 5.09074e-15 3.85776e-30
lhumerus -44.1945 -19.7423 94.5007
lradius 50.4468 -0 0
lwrist 16.7611 0 0
lhand -17.3 2.74702 0.059922
lfingers 7.12502 -0 0
lthumb 8.94499 32.5151 0.054724
rclavicle -3.10874e-14 5.09074e-15 3.85776e-30
rhumerus -45.2141 9.02166 -91.3134
rradius 63.372 -0 0
rwrist 9.68388 0 0
rhand -21.9747 -18.7103 0.0546766
rfingers 7.12502 -0 0
rthumb 4.43196 -48.5708 0.0569042
410
root 4.33309 16.2084 -11.1842 4.00812 -33.2618 -4.98491
lfemur -29.9783 5.29988 -6.32418
ltibia 45.632 -0 0
lfoot -12.6918 11.7536 0.207496
ltoes -1.08298 0 0
rfemur -32.8675 -12.2924 20.4822
rtibia 64.741 -0 0
rfoot 2.51972 -1.07912 0.013659
rtoes 21.2446 -0 0
lowerback 5.30248 3.71565 1.80188
upperback 1.79259 5.0071 -1.16255
thorax -0.868612 2.50524 -2.47274
lowerneck -6.36225 2.36238 7.68581
upperneck 3.8245 2.49372 -0.179498
head 2.48923 1.35137 -1.29828
lclavicle -3.37447e-14 8.57747e-15 4.02021e-30
lhumerus -44.1671 -19.8104 94.6012
lradius 50.21 -0 0
lwrist 16.4228 0 0
lhand -17.7493 2.42655 0.0624465
lfingers 7.12502 -0 0
lthumb 8.51142 32.2119 0.0570294
rclavicle -3.37447e-14 8.57747e-15 4.02021e-30
rhumerus -45.3059 8.59817 -91.0093
rradius 64.0044 -0 0
rwrist 9.94177 0 0
rhand -22.8082 -18.868 0.0569811
rfingers 7.12502 -0 0
rthumb 3.62707 -48.7407 0.0593025
411
root 4.24193 16.1779 -11.038 3.8213 -33.2721 -4.95836
lfemur -29.6475 5.81795 -6.25159
ltibia 46.6295 -0 0
lfoot -13.6534 11.2463 0.207496
ltoes -1.35104 0 0
rfemur -34.1477 -11.6546 19.3492
rtibia 63.8265 -0 0
rfoot 2.88182 -0.990566 0.013659
rtoes 20.1182 -0 0
lowerback 5.49576 3.61886 1.87894
upperback 1.82238 4.88391 -1.18057
thorax -0.944036 2.44288 -2.54047
lowerneck -6.38005 2.60593 7.8848
upperneck 3.87406 2.81747 -0.516132
head 2.53607 1.50714 -1.42984
lclavicle -3.64262e-14 1.20961e-14 4.02021e-30
lhumerus -44.1396 -19.8792 94.7025
lradius 49.971 -0 0
lwrist 16.0813 0 0
lhand -18.2027 2.10313 0.0624465
lfingers 7.12502 -0 0
lthumb 8.07387 31.9058 0.0570294
rclavicle -3.64262e-14 1.20961e-14 4.02021e-30
rhumerus -45.4008 8.17129 -90.7019
rradius 64.6425 -0 0
rwrist 10.202 0 0
rhand -23.6494 -19.0271 0.0569811
rfingers 7.12502 -0 0
rthumb 2.81485 -48.9123 0.0593025
412
root 4.1516 16.1476 -10.8932 3.63614 -33.2823 -4.932
lfemur -29.3187 6.3309 -6.17662
ltibia 47.6178 -0 0
lfoot -14.6062 10.7438 0.1991
ltoes -1.61667 0 0
rfemur -35.426 -11.0474 18.215
rtibia 62.9204 -0 0
rfoot 3.24063 -0.902817 0.013107
rtoes 19.0021 -0 0
lowerback 5.68714 3.52269 1.95497
upperback 1.85193 4.76184 -1.19848
thorax -1.0187 2.38101 -2.60749
lowerneck -6.39686 2.84732 8.08194
upperneck 3.92131 3.13855 -0.84953
head 2.58213 1.66161 -1.56009
lclavicle -3.90835e-14 1.55829e-14 3.85776e-30
lhumerus -44.1124 -19.9474 94.803
lradius 49.7342 -0 0
lwrist 15.743 0 0
lhand -18.652 1.78266 0.059922
lfingers 7.12502 -0 0
lthumb 7.6403 31.6026 0.054724
rclavicle -3.90835e-14 1.55829e-14 3.85776e-30
rhumerus -45.497 7.74879 -90.397
rradius 65.2749 -0 0
rwrist 10.4599 0 0
rhand -24.4829 -19.1848 0.0546766
rfingers 7.12502 -0 0
rthumb 2.00996 -49.0822 0.0569042
413
root 4.06375 16.1183 -10.7523 3.45605 -33.2922 -4.90633
lfemur -28.998 6.82929 -6.1008
ltibia 48.579 -0 0
lfoot -15.5327 10.2553 0.182921
ltoes -1.875 0 0
rfemur -36.6781 -10.4808 17.1011
rtibia 62.0391 -0 0
rfoot 3.58957 -0.817484 0.012043
rtoes 17.9167 -0 0
lowerback 5.87311 3.42892 2.0286
upperback 1.8807 4.64314 -1.21597
thorax -1.09124 2.32075 -2.6726
lowerneck -6.41241 3.08214 8.27364
upperneck 3.96548 3.45107 -1.17361
head 2.62659 1.81193 -1.68665
lclavicle -4.16677e-14 1.89738e-14 3.54468e-30
lhumerus -44.0861 -20.0138 94.9007
lradius 49.5039 -0 0
lwrist 15.414 0 0
lhand -19.0889 1.47103 0.0550567
lfingers 7.12502 -0 0
lthumb 7.21867 31.3077 0.0502809
rclavicle -4.16677e-14 1.89738e-14 3.54468e-30
rhumerus -45.5926 7.3384 -90.1001
rradius 65.8898 -0 0
rwrist 10.7107 0 0
rhand -25.2935 -19.3381 0.0502354
rfingers 7.12502 -0 0
rthumb 1.22723 -49.2474 0.0522824
414
root 3.98002 16.0902 -10.618 3.28441 -33.3015 -4.88183
lfemur -28.6914 7.30381 -6.02586
ltibia 49.495 -0 0
lfoot -16.4155 9.79001 0.160154
ltoes -2.12115 0 0
rfemur -37.8795 -9.96339 16.03
rtibia 61.1993 -0 0
rfoot 3.92207 -0.736178 0.0105457
rtoes 16.8824 -0 0
lowerback 6.0502 3.33935 2.09847
upperback 1.90814 4.53003 -1.23268
thorax -1.16029 2.26325 -2.73456
lowerneck -6.4265 3.30594 8.45629
upperneck 4.00593 3.7491 -1.48231
head 2.66865 1.95527 -1.80715
lclavicle -4.41302e-14 2.2205e-14 3.10404e-30
lhumerus -44.0612 -20.0771 94.9938
lradius 49.2844 -0 0
lwrist 15.1005 0 0
lhand -19.5051 1.17415 0.0482106
lfingers 7.12502 -0 0
lthumb 6.81693 31.0267 0.0440282
rclavicle -4.41302e-14 2.2205e-14 3.10404e-30
rhumerus -45.6857 6.94781 -89.8167
rradius 66.4758 -0 0
rwrist 10.9497 0 0
rhand -26.0659 -19.4841 0.0439861
rfingers 7.12502 -0 0
rthumb 0.481391 -49.4048 0.0457787
415
root 3.90209 16.0642 -10.4931 3.12463 -33.3101 -4.85899
lfemur -28.4052 7.74513 -5.95373
ltibia 50.3475 -0 0
lfoot -17.2369 9.35735 0.132527
ltoes -2.35028 0 0
rfemur -39.0047 -9.50179 15.0248
rtibia 60.4177 -0 0
rfoot 4.23157 -0.660508 0.00872798
rtoes 15.9196 -0 0
lowerback 6.21492 3.25578 2.16324
upperback 1.93371 4.42476 -1.24828
thorax -1.22451 2.20967 -2.79218
lowerneck -6.43898 3.51428 8.62629
upperneck 4.04215 4.02669 -1.76955
head 2.70754 2.08876 -1.91923
lclavicle -4.64223e-14 2.52126e-14 2.56909e-30
lhumerus -44.038 -20.136 95.0804
lradius 49.0802 -0 0
lwrist 14.8087 0 0
lhand -19.8926 0.897845 0.0398998
lfingers 7.12502 -0 0
lthumb 6.44306 30.7652 0.036439
rclavicle -4.64223e-14 2.52126e-14 2.56909e-30
rhumerus -45.7739 6.5847 -89.5527
rradius 67.0212 -0 0
rwrist 11.1722 0 0
rhand -26.785 -19.6199 0.0363997
rfingers 7.12502 -0 0
rthumb -0.212938 -49.5512 0.0378835
416
root 3.83161 16.0406 -10.3801 2.9801 -33.3179 -4.83831
lfemur -28.1456 8.14395 -5.88651
ltibia 51.1187 -0 0
lfoot -17.9796 8.96642 0.102202
ltoes -2.5575 0 0
rfemur -40.0281 -9.10118 14.1091
rtibia 59.7106 -0 0
rfoot 4.51148 -0.59208 0.00673205
rtoes 15.0489 -0 0
lowerback 6.3638 3.18004 2.22162
upperback 1.95685 4.32956 -1.26243
thorax -1.28254 2.16115 -2.84423
lowerneck -6.44973 3.70275 8.78002
upperneck 4.07372 4.2779 -2.02926
head 2.74248 2.20956 -2.02053
lclavicle -4.84953e-14 2.79328e-14 1.98166e-30
lhumerus -44.0172 -20.1894 95.1588
lradius 48.8954 -0 0
lwrist 14.5448 0 0
lhand -20.2429 0.648009 0.0307746
lfingers 7.12502 -0 0
lthumb 6.10494 30.5288 0.0281055
rclavicle -4.84953e-14 2.79328e-14 1.98166e-30
rhumerus -45.8552 6.25663 -89.3135
rradius 67.5145 -0 0
rwrist 11.3734 0 0
rhand -27.4351 -19.7427 0.0280727
rfingers 7.12502 -0 0
rthumb -0.840751 -49.6835 0.0292174
417
root 3.77022 16.0201 -10.2816 2.85423 -33.3246 -4.82028
lfemur -27.9189 8.49101 -5.82643
ltibia 51.7901 -0 0
lfoot -18.6263 8.62627 0.0716629
ltoes -2.73795 0 0
rfemur -40.9236 -8.76554 13.3066
rtibia 59.095 -0 0
rfoot 4.75523 -0.532499 0.00472163
rtoes 14.2905 -0 0
lowerback 6.49337 3.11396 2.27228
upperback 1.97703 4.24666 -1.27478
thorax -1.33304 2.11886 -2.88952
lowerneck -6.45868 3.86689 8.9139
upperneck 4.10028 4.49675 -2.25536
head 2.77274 2.3148 -2.10868
lclavicle -5.03006e-14 3.03016e-14 1.38992e-30
lhumerus -43.999 -20.2358 95.2271
lradius 48.7345 -0 0
lwrist 14.3149 0 0
lhand -20.548 0.430492 0.0215839
lfingers 7.12502 -0 0
lthumb 5.81052 30.3229 0.019712
rclavicle -5.03006e-14 3.03016e-14 1.38992e-30
rhumerus -45.927 5.97121 -89.105
rradius 67.9441 -0 0
rwrist 11.5486 0 0
rhand -28.0013 -19.8495 0.0196874
rfingers 7.12502 -0 0
rthumb -1.38745 -49.7986 0.0204903
418
root 3.7196 16.0032 -10.2005 2.75042 -33.3301 -4.8054
lfemur -27.7316 8.77705 -5.77579
ltibia 52.3439 -0 0
lfoot -19.1594 8.34609 0.0435977
ltoes -2.88677 0 0
rfemur -41.665 -8.49809 12.6414
rtibia 58.5874 -0 0
rfoot 4.95625 -0.483369 0.00287293
rtoes 13.6653 -0 0
lowerback 6.60019 3.05937 2.31396
upperback 1.99368 4.17829 -1.28499
thorax -1.37466 2.08394 -2.92684
lowerneck -6.46578 4.00226 9.02431
upperneck 4.12155 4.67734 -2.44183
head 2.79758 2.40164 -2.18135
lclavicle -5.17894e-14 3.22553e-14 8.4574e-31
lhumerus -43.9842 -20.2742 95.2834
lradius 48.6019 -0 0
lwrist 14.1254 0 0
lhand -20.7996 0.251141 0.0131328
lfingers 7.12502 -0 0
lthumb 5.56773 30.1532 0.0119939
rclavicle -5.17894e-14 3.22553e-14 8.4574e-31
rhumerus -45.987 5.73601 -88.9328
rradius 68.2984 -0 0
rwrist 11.693 0 0
rhand -28.4682 -19.9375 0.0119781
rfingers 7.12502 -0 0
rthumb -1.83831 -49.8935 0.0124666
